<svg xmlns="http://www.w3.org/2000/svg" width="154" height="38" viewBox="0 0 154 38">
    <defs>
        <filter id="a" width="101%" height="117.5%" x="-.5%" y="-6.2%" filterUnits="objectBoundingBox">
            <feOffset dy="2" in="SourceAlpha" result="shadowOffsetOuter1"/>
            <feGaussianBlur in="shadowOffsetOuter1" result="shadowBlurOuter1" stdDeviation="2"/>
            <feColorMatrix in="shadowBlurOuter1" result="shadowMatrixOuter1" values="0 0 0 0 0 0 0 0 0 0 0 0 0 0 0 0 0 0 0.0834182518 0"/>
            <feMerge>
                <feMergeNode in="shadowMatrixOuter1"/>
                <feMergeNode in="SourceGraphic"/>
            </feMerge>
        </filter>
    </defs>
    <g fill="none" fill-rule="evenodd" filter="url(#a)" transform="translate(-131 -23)">
        <path fill="#00B6A4" fill-rule="nonzero" d="M141.37 40.355l-.007-.743-2.063.018c-.604-.049-.9-.431-.887-1.147-.023.057-.023-.768 0-2.476l-1.487-.785c-.312-.089-.13-.4 0-.79.07-.209.343-.859.82-1.95a6.206 6.206 0 0 1-.067-.908c0-3.63 3.175-6.574 6.797-6.574s6.94 2.94 6.94 6.571c0 2.116-1.111 4.088-2.754 5.366l.011 3.436.906.002c.01-1.94.019-2.912.024-2.917 1.654-1.44 2.67-3.758 2.715-6.063h.827v15.37c0 1.51-1.22 2.73-2.85 2.734-3.231-.662-9.271-.62-12.445 0-1.46.002-2.85-1.224-2.85-2.733v-15.37l1.89-.002c.007.32.028.744.038.91l-1.072 2.59c-.167.298-.13.48.11.549l1.714.905-.002 2.735c.107.805.508 1.236 1.205 1.292l2.21-.02h.278zm2.526-13.967c-.689 0-.391-.033-.897.056-.885.289-1.416 1.02-1.39 1.908-1.823.19-1.716 2.897-.129 2.897h6.35c1.458 0 1.753-2.812-.375-2.876.117-1.178-1.373-1.993-2.35-1.268-.367-.46-.657-.552-1.21-.717z"/>
        <path fill="#FFF" d="M173.332 47.593v1.984c-.919-.141-1.532-.165-2.757-.165h-8.839c-1.414 0-1.933.024-2.687.07v-1.677c.472-.449.92-.968 1.72-2.008l8.934-11.743c.235-.284.518-.614.872-1.016-.472.047-1.108.07-1.438.07h-6.458c-1.226 0-1.91.048-2.734.166V31.29c.801.119 1.508.166 2.734.166h7.613c.966 0 1.72-.024 2.64-.071v1.63c-.495.473-.943 1.016-1.697 2.009l-8.698 11.436c-.33.425-.636.78-1.13 1.346.8-.047 1.248-.047 1.814-.047h7.354c1.107 0 1.885-.047 2.757-.165zm8.155 2.126c-3.865 0-6.316-2.575-6.316-6.663s2.45-6.687 6.293-6.687c3.841 0 6.269 2.6 6.269 6.664 0 4.04-2.451 6.686-6.246 6.686zm.024-11.861c-2.805 0-4.526 1.961-4.526 5.15 0 3.214 1.721 5.175 4.479 5.175 2.757 0 4.454-1.96 4.454-5.15 0-3.19-1.697-5.175-4.407-5.175zm11.054 16.516h-2.074c.117-.922.165-1.678.165-2.646V39.394c0-1.134-.048-1.82-.165-2.717h1.885v1.346a7.8 7.8 0 0 1-.07.97c1.06-1.678 2.71-2.553 4.808-2.553 3.63 0 5.845 2.481 5.845 6.593 0 4.016-2.263 6.592-5.798 6.592-2.074 0-3.748-.875-4.856-2.505.071.662.095 1.016.095 1.654v2.93c0 1.11.047 1.796.165 2.67zm4.43-6.285c2.57 0 4.125-1.914 4.125-5.056 0-3.214-1.508-5.057-4.148-5.057-2.71 0-4.549 2.032-4.549 5.08 0 1.536.495 2.954 1.344 3.78.825.804 2.003 1.253 3.229 1.253z"/>
        <path fill="#00B6A4" d="M204.685 44.332l3.394-.354c.094 1.063.236 1.535.66 2.079.684.898 1.91 1.394 3.441 1.394 2.357 0 3.771-1.063 3.771-2.835 0-.97-.447-1.773-1.178-2.174-.707-.378-.849-.402-4.101-1.158-1.768-.402-2.71-.78-3.56-1.441-1.201-.945-1.814-2.245-1.814-3.828 0-3.284 2.64-5.41 6.694-5.41 2.687 0 4.714.826 5.868 2.386.59.78.873 1.488 1.155 2.74l-3.37.402c-.141-.803-.306-1.205-.707-1.677-.613-.733-1.65-1.135-2.946-1.135-2.05 0-3.441 1.04-3.441 2.576 0 .992.518 1.677 1.602 2.15.519.213.707.26 3.324.85 1.862.402 2.993.851 3.841 1.442 1.344.992 1.957 2.292 1.957 4.064 0 1.678-.519 3.048-1.485 4.017-1.25 1.205-3.111 1.795-5.633 1.795-1.933 0-3.819-.472-4.95-1.228-.943-.638-1.626-1.536-2.074-2.694-.212-.543-.306-.992-.448-1.961zm20.576 5.505h-3.323c.118-1.016.165-1.795.165-3.071v-7.42c0-1.488-.047-2.173-.165-3.071h3.158v1.205c0 .142 0 .496-.023.874.683-1.441 2.427-2.363 4.384-2.363 1.272 0 2.31.355 3.04 1.064.424.378.613.685.896 1.417.801-1.063 1.249-1.488 1.98-1.866.777-.426 1.579-.615 2.64-.615 1.508 0 2.733.473 3.535 1.347.777.85 1.107 1.914 1.107 3.592v5.836c0 1.323.047 2.103.189 3.071h-3.441c.141-.968.188-1.677.188-3.071v-5.293c0-2.08-.73-3.024-2.31-3.024-.777 0-1.366.212-1.932.709-.825.708-1.202 1.464-1.485 2.93v4.678c0 1.3.047 2.103.165 3.071h-3.394c.141-.992.189-1.724.189-3.071v-5.293c0-1.985-.755-2.977-2.287-2.977-.99 0-1.79.402-2.427 1.229-.519.685-.755 1.228-1.014 2.362v4.679c0 1.276.047 1.984.165 3.071zm29.438 0v-1.535c-.943.897-1.532 1.228-2.498 1.488a8.32 8.32 0 0 1-2.192.284c-2.876 0-4.62-1.489-4.62-3.97 0-1.654 1.037-3.142 2.664-3.828 1.532-.638 3.276-.874 6.646-.945v-1.205c0-1.37-.919-2.079-2.71-2.079-.943 0-1.91.26-2.451.685-.448.331-.66.662-.943 1.512l-3.017-.543c.542-1.37.966-1.985 1.862-2.623 1.155-.85 2.475-1.205 4.502-1.205 2.262 0 3.63.402 4.643 1.394.801.756 1.108 1.654 1.108 3.26v6.357c0 1.252.047 1.89.188 2.953H254.7zm0-5.269v-1.181c-4.502.094-6.27.874-6.27 2.717 0 1.11.826 1.796 2.146 1.796 1.249 0 2.474-.473 3.276-1.252.565-.567.848-1.253.848-2.08zm15.862-8.293l-.825 2.977c-.99-.284-1.484-.378-2.097-.378-1.179 0-2.074.378-2.734 1.158-.59.685-.825 1.228-.967 2.363v4.37c0 1.277.048 1.962.165 3.072h-3.37a25.98 25.98 0 0 0 .165-3.071v-7.42c0-1.44-.024-2.102-.165-3.071h3.205v2.22c.849-1.677 2.31-2.48 4.431-2.48.566 0 1.132.07 2.192.26zm3.3-3.639h3.37a26.198 26.198 0 0 0-.165 2.906v.733h.99c1.108 0 1.627-.024 2.38-.142v2.788c-.777-.118-1.225-.142-2.309-.142h-1.06v7.325c0 1.158.424 1.583 1.555 1.583.613 0 .99-.118 1.72-.52l.425 2.505c-1.014.378-1.72.496-2.946.496-2.71 0-3.795-.969-3.795-3.45V38.78h-.896c-.872 0-1.32.024-2.097.142v-2.788c.683.118 1.131.142 2.121.142h.872v-.733c0-1.016-.07-2.055-.165-2.906z"/>
    </g>
</svg>
